<?xml version="1.0" standalone="no"?>
<!DOCTYPE svg PUBLIC "-//W3C//DTD SVG 20010904//EN"
 "http://www.w3.org/TR/2001/REC-SVG-20010904/DTD/svg10.dtd">
<svg version="1.0" xmlns="http://www.w3.org/2000/svg"
 width="348.000000pt" height="348.000000pt" viewBox="0 0 348.000000 348.000000"
 preserveAspectRatio="xMidYMid meet">

<g transform="translate(0.000000,348.000000) scale(0.100000,-0.100000)"
fill="#000000" stroke="none">
<path d="M1557 2794 c-226 -41 -429 -152 -586 -320 -115 -123 -189 -246 -241
-402 -155 -462 0 -960 388 -1251 77 -58 235 -140 287 -148 58 -9 65 4 65 126
l0 106 -97 0 c-76 0 -107 4 -136 19 -56 28 -96 72 -127 141 -35 76 -67 118
-119 155 -47 35 -51 47 -17 60 57 21 133 -28 220 -144 56 -75 134 -100 228
-72 52 15 54 17 66 63 7 26 21 59 32 73 l19 25 -81 17 c-269 58 -397 224 -398
516 0 67 6 109 20 153 21 60 60 132 79 144 7 4 7 14 1 31 -14 35 -11 181 4
229 12 40 12 40 59 38 49 -1 145 -40 211 -86 36 -24 37 -24 99 -9 85 22 329
22 414 0 62 -15 63 -15 99 9 66 46 162 85 211 86 47 2 47 2 59 -38 14 -45 17
-199 4 -230 -5 -14 -2 -26 10 -40 27 -29 67 -113 81 -168 15 -61 6 -254 -15
-320 -55 -171 -180 -276 -375 -314 l-80 -16 19 -27 c38 -53 50 -133 50 -326 0
-204 2 -211 65 -201 20 3 77 26 128 52 585 290 787 1046 427 1594 -239 364
-659 550 -1073 475z"/>
</g>
</svg>
